<svg t="1697730558842" class="icon" style="width: 1em; height: 1em; vertical-align: middle; fill: currentcolor; overflow: hidden; font-size: 200px;" viewBox="0 0 1024 1024" version="1.1" xmlns="http://www.w3.org/2000/svg" p-id="4517" id="mx_n_1697730558844" width="200" height="200" data-spm-anchor-id="a313x.search_index.0.i12.1c6e3a81ygTZLO"><path d="M703.13914 999.162073H361.504741a126.44763 126.44763 0 0 1-126.22183-126.22183V424.728556a126.44763 126.44763 0 0 1 126.22183-126.221831h341.634399a126.44763 126.44763 0 0 1 126.22183 126.221831v448.211687a126.44763 126.44763 0 0 1-126.22183 126.22183zM361.504741 366.246527a58.482029 58.482029 0 0 0-58.482029 58.482029v448.211687a58.482029 58.482029 0 0 0 58.482029 58.482028h341.634399a58.482029 58.482029 0 0 0 58.482029-58.482028V424.728556a58.482029 58.482029 0 0 0-58.482029-58.482029H361.504741z" fill="#222222" p-id="4518"></path><path d="M587.755678 366.246527h-110.641676c-18.741345 0-33.869901-15.128556-33.869901-33.869901V176.349283c0-18.741345 15.128556-33.869901 33.869901-33.8699h110.641676c18.741345 0 33.869901 15.128556 33.869901 33.8699v156.027343c0 18.741345-15.128556 33.869901-33.869901 33.869901z m-76.997574-67.739802h42.901874V210.219184h-42.901874v88.287541z" fill="#222222" p-id="4519"></path><path d="M668.140243 210.219184H396.503638c-18.741345 0-33.869901-15.128556-33.8699-33.869901V96.867916c0-47.417861 38.611687-86.029548 86.029548-86.029548h167.317309c47.417861 0 86.029548 38.611687 86.029548 86.029548v79.481367c0 18.741345-15.128556 33.869901-33.8699 33.869901z m-237.766704-67.739801h203.896803V96.867916c0-10.16097-8.128776-18.289746-18.289747-18.289746h-167.317309c-10.16097 0-18.289746 8.354576-18.289747 18.289746v45.611467z" fill="#222222" p-id="4520"></path><path d="M229.412128 199.832415h-67.739802c0-44.934068 18.289746-72.481588 33.644102-87.610144 35.676295-35.224697 84.900551-35.676295 90.997133-35.676295h110.190077v67.739801h-110.641675c-17.16075 0-56.449835 5.644983-56.449835 55.546638zM657.527674 656.624476c-44.708269 0-94.609923-11.289967-144.285778-45.159867-107.706284-73.384785-221.057552-2.483793-225.799338 0.451598a33.869901 33.869901 0 0 1-36.805292-56.901433c6.322381-4.064388 155.349945-98.674311 300.764719 0.451599 107.706284 73.384785 220.831753 2.483793 225.799338-0.451599 15.805954-10.16097 36.579493-5.644983 46.740463 10.16097a33.869901 33.869901 0 0 1-9.935171 46.740463c-4.290187 2.709592-70.223594 44.708269-156.478941 44.708269z" fill="#222222" p-id="4521"></path></svg>