<svg width="20" height="20" viewBox="0 0 20 20" fill="none" xmlns="http://www.w3.org/2000/svg">
<path d="M19.901 6.54444L18.8507 1.68889C18.6306 0.688889 17.8504 0 16.9401 0H3.04562C2.14533 0 1.35507 0.7 1.145 1.68889L0.094666 6.54444C-0.145411 7.67778 0.0746597 8.83333 0.714866 9.74444C0.794891 9.86667 0.904927 9.95556 0.994956 10.0667V17.7778C0.994956 19 1.89525 20 2.9956 20H17.0001C18.1005 20 19.0008 19 19.0008 17.7778V10.0667C19.0908 9.96667 19.2008 9.86667 19.2808 9.75556C19.921 8.84444 20.1511 7.67778 19.901 6.54444ZM16.9101 2.21111L17.9604 7.06667C18.0604 7.53333 17.9704 8 17.7103 8.36667C17.5703 8.56667 17.2702 8.88889 16.77 8.88889C16.1598 8.88889 15.6297 8.34444 15.5596 7.62222L14.9795 2.22222L16.9101 2.21111ZM10.9982 2.22222H12.9588L13.499 7.24444C13.549 7.67778 13.429 8.11111 13.1689 8.43333C12.9488 8.72222 12.6287 8.88889 12.2186 8.88889C11.5484 8.88889 10.9982 8.23333 10.9982 7.43333V2.22222ZM6.48672 7.24444L7.0369 2.22222H8.99753V7.43333C8.99753 8.23333 8.44735 8.88889 7.70712 8.88889C7.36701 8.88889 7.05691 8.72222 6.81683 8.43333C6.56675 8.11111 6.44671 7.67778 6.48672 7.24444ZM2.03529 7.06667L3.04562 2.22222H5.01625L4.43606 7.62222C4.35604 8.34444 3.83587 8.88889 3.22567 8.88889C2.73552 8.88889 2.42542 8.56667 2.29537 8.36667C2.02529 8.01111 1.93526 7.53333 2.03529 7.06667ZM2.9956 17.7778V11.0778C3.07563 11.0889 3.14565 11.1111 3.22567 11.1111C4.09595 11.1111 4.88621 10.7111 5.46639 10.0556C6.06659 10.7222 6.86685 11.1111 7.77714 11.1111C8.64742 11.1111 9.42767 10.7111 10.0079 10.0778C10.598 10.7111 11.3983 11.1111 12.2986 11.1111C13.1389 11.1111 13.9391 10.7222 14.5393 10.0556C15.1195 10.7111 15.9098 11.1111 16.78 11.1111C16.8601 11.1111 16.9301 11.0889 17.0101 11.0778V17.7778H2.9956Z" fill="#2196F3"/>
</svg>
