<svg width="14" height="20" viewBox="0 0 14 20" fill="none" xmlns="http://www.w3.org/2000/svg">
<path d="M6.76219 20C7.69199 20 8.45273 19.0769 8.45273 17.9487H5.07164C5.07164 19.0769 5.83239 20 6.76219 20ZM11.8338 13.8462V8.71795C11.8338 5.56923 10.456 2.93333 8.0301 2.2359V1.53846C8.0301 0.68718 7.46376 0 6.76219 0C6.06061 0 5.49428 0.68718 5.49428 1.53846V2.2359C3.0768 2.93333 1.69055 5.55897 1.69055 8.71795V13.8462L0 15.8974V16.9231H13.5244V15.8974L11.8338 13.8462ZM10.1433 14.8718H3.38109V8.71795C3.38109 6.17436 4.65746 4.10256 6.76219 4.10256C8.86692 4.10256 10.1433 6.17436 10.1433 8.71795V14.8718Z" fill="#2196F3"/>
</svg>
