<svg width="20" height="20" viewBox="0 0 20 20" fill="none" xmlns="http://www.w3.org/2000/svg">
<path d="M19.8978 5.43333L18.8478 1.68889C18.6278 0.688889 17.8478 0 16.9378 0H3.04776C2.14776 0 1.35776 0.7 1.14776 1.68889L0.0977558 5.43333C-0.362244 7.62222 0.947756 8.88889 0.997756 8.95556V17.7778C0.997756 19 1.89776 20 2.99776 20H16.9978C18.0978 20 18.9978 19 18.9978 17.7778V8.95556C20.1178 7.71111 20.0878 6.27778 19.8978 5.43333ZM10.9978 2.22222H12.9578L13.4978 6.13333C13.5878 6.92222 13.1078 7.77778 12.2178 7.77778C11.5478 7.77778 10.9978 7.12222 10.9978 6.32222V2.22222ZM4.43776 6.51111C4.35776 7.23333 3.83776 7.77778 3.22776 7.77778C2.29776 7.77778 1.87776 6.7 2.03776 5.95556L3.04776 2.22222H5.01776L4.43776 6.51111ZM8.99776 6.32222C8.99776 7.12222 8.44776 7.77778 7.70776 7.77778C6.95776 7.77778 6.40776 7 6.48776 6.13333L7.03776 2.22222H8.99776V6.32222ZM16.7678 7.77778C16.1578 7.77778 15.6278 7.23333 15.5578 6.51111L14.9778 2.22222L16.9078 2.21111L17.9578 5.95556C18.1178 6.7 17.7078 7.77778 16.7678 7.77778Z" fill="#2196F3"/>
</svg>
