<svg width="21" height="20" viewBox="0 0 21 20" fill="none" xmlns="http://www.w3.org/2000/svg">
<path d="M19.41 9.41235L10.58 0.580145C10.21 0.210052 9.7 0 9.17 0H2C0.9 0 0 0.900225 0 2.0005V9.17229C0 9.70243 0.21 10.2126 0.59 10.5826L9.42 19.4149C10.2 20.195 11.47 20.195 12.25 19.4149L19.42 12.2431C20.2 11.4629 20.2 10.2026 19.41 9.41235ZM4.5 6.0015C3.67 6.0015 3 5.33133 3 4.50113C3 3.67092 3.67 3.00075 4.5 3.00075C5.33 3.00075 6 3.67092 6 4.50113C6 5.33133 5.33 6.0015 4.5 6.0015Z" fill="#2196F3"/>
</svg>
