<svg width="20" height="20" viewBox="0 0 20 20" fill="none" xmlns="http://www.w3.org/2000/svg">
<path d="M19.4064 9.41235L10.578 0.580145C10.2081 0.210052 9.69818 0 9.16828 0H1.99962C0.899831 0 0 0.900225 0 2.0005V9.17229C0 9.70243 0.20996 10.2126 0.589889 10.5826L9.41823 19.4149C10.1981 20.195 11.4678 20.195 12.2477 19.4149L19.4164 12.2431C20.1962 11.4629 20.1962 10.2026 19.4064 9.41235ZM10.828 18.0045L1.99962 9.17229V2.0005H9.16828L17.9966 10.8327L10.828 18.0045Z" fill="#2196F3"/>
<path d="M4.49923 6.00148C5.3275 6.00148 5.99895 5.32974 5.99895 4.50111C5.99895 3.67247 5.3275 3.00073 4.49923 3.00073C3.67096 3.00073 2.99951 3.67247 2.99951 4.50111C2.99951 5.32974 3.67096 6.00148 4.49923 6.00148Z" fill="#2196F3"/>
</svg>
